# xmcd
#
# Track frame offsets:
#	187
#	12325
#	24540
#	36855
#	46967
#	56717
#	66777
#	78257
#	87785
#	99765
#	113287
#	125277
#	135845
#	147850
#	159735
#	173530
#
# Disc length: 2476 seconds
#
# Revision: 3
# Processed by: cddbd v1.5.1PL2 Copyright (c) Steve Scherf et al.
# Submitted via: dBpowerAMP V4.0
#
DISCID=b909aa10
DTITLE=Loretta Lynn - Country Music Hall Of Fame Series
DYEAR=1991
DGENRE=Country
TTITLE0=Sucess
TTITLE1=Mr. And Mrs. Used To Be
TTITLE2=Blue Kentucky Girl
TTITLE3=You Ain't Woman Enough
TTITLE4=Don't Come Hom A Drinkin' (With Lovin' On Your Mind)
TTITLE5=Fist City
TTITLE6=I'm A Honky Tonk Girl
TTITLE7=Your Squaw Is On The Warpath
TTITLE8=Wings Upon Your Horns
TTITLE9=Coalminer's Daughter
TTITLE10=After The Fire Is Gone
TTITLE11=You're Looking At Country
TTITLE12=One's On The Way
TTITLE13=The Pill
TTITLE14=When The Tingle Becomes A Chill
TTITLE15=Out Of My Head And Back In My Bed
EXTD=
EXTT0=
EXTT1=
EXTT2=
EXTT3=
EXTT4=
EXTT5=
EXTT6=
EXTT7=
EXTT8=
EXTT9=
EXTT10=
EXTT11=
EXTT12=
EXTT13=
EXTT14=
EXTT15=
PLAYORDER=
